M48
;DRILL file {PCBnew (2011-05-25)-stable} date Sun 28 Jul 2013 21:18:53 BST
;FORMAT={-:-/ absolute / metric / decimal}
FMAT,2
METRIC,TZ
T1C0.635
T2C0.800
T3C0.813
T4C1.001
T5C1.016
T6C1.100
T7C1.600
T8C3.500
%
G90
G05
M71
T1
X43.772Y-42.969
X45.296Y-44.747
T2
X29.294Y-75.989
X53.424Y-80.307
X60.536Y-73.957
X69.934Y-64.813
X69.934Y-68.623
T3
X28.786Y-39.159
X28.786Y-49.319
X30.310Y-81.069
X31.834Y-39.159
X31.834Y-49.319
X31.920Y-75.999
X32.802Y-92.700
X32.850Y-81.069
X34.882Y-39.159
X34.882Y-49.319
X37.800Y-92.700
X39.500Y-32.261
X39.500Y-47.501
X41.910Y-92.710
X42.040Y-32.261
X42.040Y-47.501
X42.080Y-75.999
X44.280Y-52.367
X44.280Y-54.907
X44.450Y-85.090
X44.450Y-87.630
X44.501Y-80.249
X44.580Y-32.261
X44.580Y-47.501
X46.566Y-59.987
X46.566Y-62.527
X46.566Y-65.067
X46.566Y-67.607
X46.566Y-70.147
X46.566Y-72.687
X46.566Y-75.227
X46.990Y-85.090
X47.120Y-32.261
X47.120Y-47.501
X49.500Y-80.249
X49.660Y-32.261
X49.660Y-47.501
X52.070Y-85.090
X52.070Y-87.630
X52.070Y-92.710
X52.200Y-32.261
X52.200Y-47.501
X54.186Y-59.987
X54.186Y-62.527
X54.186Y-65.067
X54.186Y-67.607
X54.186Y-70.147
X54.186Y-72.687
X54.186Y-75.227
X54.610Y-85.090
X54.740Y-32.261
X54.740Y-47.501
X57.150Y-92.710
X57.234Y-78.783
X57.280Y-32.261
X57.280Y-47.501
X58.758Y-51.605
X58.758Y-61.765
X59.690Y-85.090
X59.690Y-87.630
X59.774Y-78.783
X59.820Y-32.261
X59.820Y-47.501
X61.806Y-51.605
X61.806Y-61.765
X62.230Y-85.090
X64.249Y-71.420
X64.249Y-81.580
X64.600Y-39.159
X64.600Y-49.319
X67.140Y-69.893
X67.140Y-80.053
X67.310Y-85.090
X67.310Y-87.630
X67.310Y-92.710
X67.648Y-39.159
X67.648Y-49.319
X69.850Y-85.090
X70.000Y-72.939
X70.000Y-80.559
X70.696Y-39.159
X70.696Y-49.319
T4
X36.152Y-60.320
X36.152Y-70.322
T5
X29.040Y-86.403
X29.040Y-89.705
X39.200Y-86.403
X39.200Y-89.705
X48.852Y-52.367
X48.852Y-54.907
X51.392Y-52.367
X51.392Y-54.907
X53.932Y-52.367
X53.932Y-54.907
T6
X69.700Y-54.950
X69.700Y-59.451
T7
X67.201Y-53.701
X67.201Y-60.701
T8
X38.999Y-53.000
X38.999Y-81.498
X61.001Y-67.998
T0
M30
